<svg width="20" height="23" viewBox="0 0 20 23" fill="none" xmlns="http://www.w3.org/2000/svg">
<path d="M17.5 5L16.8803 15.0251C16.7219 17.5864 16.6428 18.8671 16.0008 19.7879C15.6833 20.2431 15.2747 20.6273 14.8007 20.916C13.8421 21.5 12.559 21.5 9.9927 21.5C7.42312 21.5 6.1383 21.5 5.17905 20.9149C4.7048 20.6257 4.296 20.2408 3.97868 19.7848C3.33688 18.8626 3.25945 17.5801 3.10461 15.0152L2.5 5M1 5H19M14.0557 5L13.3731 3.59173C12.9196 2.65626 12.6928 2.18852 12.3017 1.89681C12.215 1.8321 12.1231 1.77454 12.027 1.7247C11.5939 1.5 11.0741 1.5 10.0345 1.5C8.9688 1.5 8.436 1.5 7.99568 1.73412C7.8981 1.78601 7.80498 1.8459 7.71729 1.91317C7.32164 2.2167 7.10063 2.70155 6.65861 3.67126L6.05292 5M7.5 16V10M12.5 16V10" stroke="#FF5E5E" stroke-width="2" stroke-linecap="round"/>
</svg>
