<svg width="20" height="21" viewBox="0 0 20 21" fill="none" xmlns="http://www.w3.org/2000/svg">
<path d="M10.0001 19.5H16.0001M12.5001 4L16.5001 8M6.17157 18.3284L17.8285 6.67157C18.3737 6.12632 18.6463 5.8537 18.7921 5.5596C19.0694 5.00005 19.0694 4.3431 18.7921 3.78354C18.6463 3.48945 18.3737 3.21682 17.8285 2.67157C17.2832 2.12632 17.0106 1.8537 16.7165 1.70796C16.1569 1.43068 15.5 1.43068 14.9404 1.70796C14.6463 1.8537 14.3737 2.12632 13.8285 2.67157L2.17157 14.3284C1.59351 14.9064 1.30448 15.1955 1.15224 15.563C1 15.9305 1 16.3393 1 17.1568V19.4999H3.34314C4.16065 19.4999 4.5694 19.4999 4.93694 19.3477C5.30448 19.1955 5.59351 18.9064 6.17157 18.3284Z" stroke="#8D9CB8" stroke-width="1.5" stroke-linecap="round" stroke-linejoin="round"/>
</svg>
